<mxfile host="65bd71144e">
    <diagram id="_sXiNvSO6lyU-c8f1Er2" name="Page-1">
        <mxGraphModel dx="1748" dy="779" grid="1" gridSize="10" guides="1" tooltips="1" connect="1" arrows="1" fold="1" page="1" pageScale="1" pageWidth="850" pageHeight="1100" math="0" shadow="0">
            <root>
                <mxCell id="0"/>
                <mxCell id="1" parent="0"/>
                <mxCell id="24" value="" style="group;movable=1;resizable=1;rotatable=1;deletable=1;editable=1;connectable=1;" vertex="1" connectable="0" parent="1">
                    <mxGeometry x="-700" y="20" width="860" height="580" as="geometry"/>
                </mxCell>
                <mxCell id="22" value="Pipeline Load and Backup Data" style="swimlane;whiteSpace=wrap;html=1;" vertex="1" parent="24">
                    <mxGeometry width="854.9707602339181" height="370" as="geometry"/>
                </mxCell>
                <mxCell id="18" value="Azure Data Factory&amp;nbsp;&lt;br&gt;Moving" style="rounded=1;whiteSpace=wrap;html=1;fillColor=#60a917;fontColor=#ffffff;strokeColor=#2D7600;" vertex="1" parent="22">
                    <mxGeometry x="447.60233918128654" y="240" width="150.87719298245614" height="110" as="geometry"/>
                </mxCell>
                <mxCell id="4" value="Azure Data Lake Storage Gen2 - Back&lt;br&gt;DV&lt;br&gt;UV" style="rounded=1;whiteSpace=wrap;html=1;fillColor=#0050ef;fontColor=#ffffff;strokeColor=#001DBC;" vertex="1" parent="22">
                    <mxGeometry x="201.16959064327483" y="245" width="150.87719298245614" height="100" as="geometry"/>
                </mxCell>
                <mxCell id="20" style="edgeStyle=none;html=1;entryX=1;entryY=0.5;entryDx=0;entryDy=0;exitX=0;exitY=0.5;exitDx=0;exitDy=0;" edge="1" parent="22" source="18" target="4">
                    <mxGeometry relative="1" as="geometry"/>
                </mxCell>
                <mxCell id="5" value="Azure Synapse Analytics&lt;br&gt;Dedicated SQL Pool" style="rounded=1;whiteSpace=wrap;html=1;fillColor=#1ba1e2;fontColor=#ffffff;strokeColor=#006EAF;" vertex="1" parent="22">
                    <mxGeometry x="658.8304093567251" y="250" width="150.87719298245614" height="100" as="geometry"/>
                </mxCell>
                <mxCell id="3" value="Azure Data Lake Storage Gen2 - Main&lt;br&gt;data/rv" style="rounded=1;whiteSpace=wrap;html=1;fillColor=#0050ef;fontColor=#ffffff;strokeColor=#001DBC;" parent="24" vertex="1">
                    <mxGeometry x="25.146198830409354" y="40" width="150.87719298245614" height="100" as="geometry"/>
                </mxCell>
                <mxCell id="6" value="Azure Data Factory&amp;nbsp;&lt;br&gt;Moving" style="rounded=1;whiteSpace=wrap;html=1;fillColor=#60a917;fontColor=#ffffff;strokeColor=#2D7600;" vertex="1" parent="24">
                    <mxGeometry x="246.43274853801168" y="35" width="150.87719298245614" height="110" as="geometry"/>
                </mxCell>
                <mxCell id="7" style="edgeStyle=none;html=1;" edge="1" parent="24" source="3" target="6">
                    <mxGeometry relative="1" as="geometry"/>
                </mxCell>
                <mxCell id="11" style="edgeStyle=none;html=1;" edge="1" parent="24" source="9" target="5">
                    <mxGeometry relative="1" as="geometry"/>
                </mxCell>
                <mxCell id="9" value="Azure Data Lake Storage Gen2 - Main&lt;br&gt;data/uv&lt;br&gt;data/dv" style="rounded=1;whiteSpace=wrap;html=1;fillColor=#0050ef;fontColor=#ffffff;strokeColor=#001DBC;" vertex="1" parent="24">
                    <mxGeometry x="658.8304093567251" y="35" width="150.87719298245614" height="110" as="geometry"/>
                </mxCell>
                <mxCell id="16" value="Azure Databricks&lt;br&gt;Cleansing/Transform" style="rounded=1;whiteSpace=wrap;html=1;fillColor=#f0a30a;fontColor=#000000;strokeColor=#BD7000;" vertex="1" parent="24">
                    <mxGeometry x="447.60233918128654" y="35" width="150.87719298245614" height="110" as="geometry"/>
                </mxCell>
                <mxCell id="17" style="edgeStyle=none;html=1;" edge="1" parent="24" source="6" target="16">
                    <mxGeometry relative="1" as="geometry"/>
                </mxCell>
                <mxCell id="10" style="edgeStyle=none;html=1;entryX=0;entryY=0.5;entryDx=0;entryDy=0;exitX=1;exitY=0.5;exitDx=0;exitDy=0;" edge="1" parent="24" source="16" target="9">
                    <mxGeometry relative="1" as="geometry"/>
                </mxCell>
                <mxCell id="19" style="edgeStyle=none;html=1;entryX=0.5;entryY=0;entryDx=0;entryDy=0;" edge="1" parent="24" source="16" target="18">
                    <mxGeometry relative="1" as="geometry"/>
                </mxCell>
                <mxCell id="25" value="Pipeline Recover Backup Data" style="swimlane;whiteSpace=wrap;html=1;" vertex="1" parent="24">
                    <mxGeometry y="380" width="854.97" height="200" as="geometry"/>
                </mxCell>
                <mxCell id="44" style="edgeStyle=none;html=1;" edge="1" parent="25" source="26" target="42">
                    <mxGeometry relative="1" as="geometry"/>
                </mxCell>
                <mxCell id="26" value="Azure Data Lake Storage Gen2 - Back&lt;br&gt;DV&lt;br&gt;UV" style="rounded=1;whiteSpace=wrap;html=1;fillColor=#0050ef;fontColor=#ffffff;strokeColor=#001DBC;" vertex="1" parent="25">
                    <mxGeometry x="40" y="60" width="160" height="100" as="geometry"/>
                </mxCell>
                <mxCell id="45" style="edgeStyle=none;html=1;" edge="1" parent="25" source="42" target="43">
                    <mxGeometry relative="1" as="geometry"/>
                </mxCell>
                <mxCell id="42" value="Azure Data Factory&amp;nbsp;&lt;br&gt;Moving" style="rounded=1;whiteSpace=wrap;html=1;fillColor=#60a917;fontColor=#ffffff;strokeColor=#2D7600;" vertex="1" parent="25">
                    <mxGeometry x="330" y="55" width="150" height="110" as="geometry"/>
                </mxCell>
                <mxCell id="43" value="Azure Synapse Analytics&lt;br&gt;Dedicated SQL Pool" style="rounded=1;whiteSpace=wrap;html=1;fillColor=#1ba1e2;fontColor=#ffffff;strokeColor=#006EAF;" vertex="1" parent="25">
                    <mxGeometry x="610" y="60" width="150" height="100" as="geometry"/>
                </mxCell>
            </root>
        </mxGraphModel>
    </diagram>
</mxfile>